<svg xmlns="http://www.w3.org/2000/svg" version="1.1" xmlns:xlink="http://www.w3.org/1999/xlink" xmlns:svgjs="http://svgjs.dev/svgjs" width="128" height="128" viewBox="0 0 128 128"><g transform="matrix(0.6319018404907976,0,0,0.6319018404907976,26.698033559153714,12.221227130829384)"><svg viewBox="0 0 75 96" data-background-color="#ffffff" preserveAspectRatio="xMidYMid meet" height="163" width="128" xmlns="http://www.w3.org/2000/svg" xmlns:xlink="http://www.w3.org/1999/xlink"><g id="tight-bounds" transform="matrix(1,0,0,1,0.08651145518045666,0.25982714019785647)"><svg viewBox="0 0 74.82697708963909 95.481" height="95.481" width="74.82697708963909"><g><svg viewBox="0 0 74.82697708963909 95.481" height="95.481" width="74.82697708963909"><g><svg viewBox="0 0 74.82697708963909 95.481" height="95.481" width="74.82697708963909"><g id="textblocktransform"><svg viewBox="0 0 74.82697708963909 95.481" height="95.481" width="74.82697708963909" id="textblock"><g><svg viewBox="0 0 74.82697708963909 95.481" height="95.481" width="74.82697708963909"><g><svg viewBox="0 0 74.82697708963909 95.481" height="95.481" width="74.82697708963909"><g><svg xmlns="http://www.w3.org/2000/svg" xmlns:xlink="http://www.w3.org/1999/xlink" version="1.1" x="0" y="0" viewBox="16.217000000000002 6.190388028234798 65.848 84.0236119717652" enable-background="new 0 0 100 100" xml:space="preserve" height="95.481" width="74.82697708963909" class="icon-icon-0" data-fill-palette-color="accent" id="icon-0"><path fill="#ffffff" d="M63.335 90.214H35.082C30.982 90.214 27.646 86.88 27.646 82.781V57.509A1.47 1.47 0 0 1 30.588 57.509V82.781A4.5 4.5 0 0 0 35.082 87.274H63.335A4.5 4.5 0 0 0 67.829 82.781V57.159A1.47 1.47 0 1 1 70.769 57.159V82.781C70.769 86.88 67.434 90.214 63.335 90.214" data-fill-palette-color="accent"></path><path fill="#ffffff" d="M77.296 58.397H21.12A1.47 1.47 0 1 1 21.12 55.457H77.296A1.47 1.47 0 1 1 77.296 58.397" data-fill-palette-color="accent"></path><path fill="#ffffff" d="M25.262 62.088H17.687A1.47 1.47 0 1 1 17.687 59.148H25.262A1.47 1.47 0 1 1 25.262 62.088" data-fill-palette-color="accent"></path><path fill="#ffffff" d="M80.595 62.088H73.02A1.47 1.47 0 1 1 73.02 59.148H80.595A1.47 1.47 0 1 1 80.595 62.088" data-fill-palette-color="accent"></path><path fill="#ffffff" d="M62.217 79.181A1.47 1.47 0 0 1 60.747 77.711V57.042A1.47 1.47 0 1 1 63.687 57.042V77.711A1.47 1.47 0 0 1 62.217 79.181" data-fill-palette-color="accent"></path><path fill="#ffffff" d="M41.144 49.167C40.844 49.167 40.543 49.076 40.282 48.887A7.5 7.5 0 0 1 37.192 42.835 7.5 7.5 0 0 1 40.246 36.809 1.47 1.47 0 0 1 41.987 39.179 4.5 4.5 0 0 0 40.134 42.835C40.134 44.283 40.834 45.655 42.009 46.506A1.472 1.472 0 0 1 41.144 49.167" data-fill-palette-color="accent"></path><path fill="#ffffff" d="M58.435 49.167A1.46 1.46 0 0 1 57.574 48.887 7.5 7.5 0 0 1 54.483 42.835 7.5 7.5 0 0 1 57.537 36.809 1.472 1.472 0 0 1 59.278 39.179 4.5 4.5 0 0 0 57.424 42.835C57.424 44.283 58.125 45.655 59.3 46.506A1.47 1.47 0 0 1 58.435 49.167" data-fill-palette-color="accent"></path><path fill="#ffffff" d="M41.692 39A1.47 1.47 0 0 1 40.82 36.345 4.5 4.5 0 0 0 42.673 32.689C42.673 31.241 41.973 29.869 40.798 29.018A1.472 1.472 0 0 1 42.525 26.637 7.5 7.5 0 0 1 45.615 32.689 7.5 7.5 0 0 1 42.561 38.715 1.47 1.47 0 0 1 41.692 39" data-fill-palette-color="accent"></path><path fill="#ffffff" d="M32.356 49.167C32.056 49.167 31.755 49.076 31.494 48.887A7.5 7.5 0 0 1 28.404 42.835 7.5 7.5 0 0 1 31.458 36.809 1.47 1.47 0 1 1 33.199 39.179 4.5 4.5 0 0 0 31.346 42.835C31.346 44.283 32.046 45.655 33.221 46.506A1.472 1.472 0 0 1 32.356 49.167" data-fill-palette-color="accent"></path><path fill="#ffffff" d="M32.905 39A1.47 1.47 0 0 1 32.033 36.345 4.5 4.5 0 0 0 33.886 32.689C33.886 31.241 33.186 29.869 32.011 29.018A1.472 1.472 0 0 1 33.738 26.637 7.5 7.5 0 0 1 36.828 32.689 7.5 7.5 0 0 1 33.774 38.715 1.47 1.47 0 0 1 32.905 39" data-fill-palette-color="accent"></path><path fill="#ffffff" d="M66.653 49.167A1.46 1.46 0 0 1 65.792 48.887 7.5 7.5 0 0 1 62.702 42.835 7.5 7.5 0 0 1 65.756 36.809 1.472 1.472 0 0 1 67.497 39.179 4.5 4.5 0 0 0 65.643 42.835C65.643 44.283 66.344 45.655 67.518 46.506A1.47 1.47 0 0 1 66.653 49.167" data-fill-palette-color="accent"></path><path fill="#ffffff" d="M67.202 39A1.47 1.47 0 0 1 66.33 36.345 4.5 4.5 0 0 0 68.184 32.689C68.184 31.241 67.483 29.869 66.308 29.018A1.47 1.47 0 1 1 68.033 26.637 7.5 7.5 0 0 1 71.124 32.689 7.5 7.5 0 0 1 68.07 38.715 1.46 1.46 0 0 1 67.202 39" data-fill-palette-color="accent"></path><path fill="#ffffff" d="M41.144 29C40.844 29 40.543 28.909 40.282 28.72A7.5 7.5 0 0 1 37.192 22.668 7.5 7.5 0 0 1 40.246 16.642 1.471 1.471 0 0 1 41.987 19.012 4.5 4.5 0 0 0 40.134 22.668C40.134 24.116 40.834 25.488 42.009 26.339A1.472 1.472 0 0 1 41.144 29" data-fill-palette-color="accent"></path><path fill="#ffffff" d="M49.519 49.167C49.219 49.167 48.918 49.076 48.657 48.887A7.5 7.5 0 0 1 45.567 42.835 7.5 7.5 0 0 1 48.621 36.809 1.47 1.47 0 0 1 50.362 39.179 4.5 4.5 0 0 0 48.509 42.835C48.509 44.283 49.209 45.655 50.384 46.506A1.472 1.472 0 0 1 49.519 49.167" data-fill-palette-color="accent"></path><path fill="#ffffff" d="M50.067 39A1.47 1.47 0 0 1 49.195 36.345 4.5 4.5 0 0 0 51.048 32.689C51.048 31.241 50.348 29.869 49.173 29.018A1.472 1.472 0 0 1 50.9 26.637 7.5 7.5 0 0 1 53.989 32.689 7.5 7.5 0 0 1 50.936 38.715 1.47 1.47 0 0 1 50.067 39" data-fill-palette-color="accent"></path><path fill="#ffffff" d="M49.519 29C49.219 29 48.918 28.909 48.657 28.72A7.5 7.5 0 0 1 45.567 22.668 7.5 7.5 0 0 1 48.621 16.642 1.47 1.47 0 0 1 50.362 19.012 4.5 4.5 0 0 0 48.509 22.668C48.509 24.116 49.209 25.488 50.384 26.339A1.472 1.472 0 0 1 49.519 29" data-fill-palette-color="accent"></path><path fill="#ffffff" d="M41.692 18.833A1.47 1.47 0 0 1 40.82 16.178 4.5 4.5 0 0 0 42.673 12.522C42.673 11.074 41.973 9.702 40.798 8.851A1.472 1.472 0 0 1 42.525 6.47 7.5 7.5 0 0 1 45.615 12.522 7.5 7.5 0 0 1 42.561 18.548 1.47 1.47 0 0 1 41.692 18.833" data-fill-palette-color="accent"></path><path fill="#ffffff" d="M57.461 29A1.46 1.46 0 0 1 56.6 28.72 7.5 7.5 0 0 1 53.509 22.668 7.5 7.5 0 0 1 56.564 16.642 1.472 1.472 0 0 1 58.305 19.012 4.5 4.5 0 0 0 56.45 22.668C56.45 24.116 57.151 25.488 58.326 26.339A1.47 1.47 0 0 1 57.461 29" data-fill-palette-color="accent"></path><path fill="#ffffff" d="M58.009 18.833A1.47 1.47 0 0 1 57.137 16.178 4.5 4.5 0 0 0 58.992 12.522 4.54 4.54 0 0 0 57.115 8.852 1.47 1.47 0 0 1 58.84 6.47 7.5 7.5 0 0 1 61.932 12.522 7.5 7.5 0 0 1 58.877 18.548 1.46 1.46 0 0 1 58.009 18.833" data-fill-palette-color="accent"></path></svg></g></svg></g></svg></g></svg></g></svg></g><g></g></svg></g><defs></defs></svg><rect width="74.82697708963909" height="95.481" fill="none" stroke="none" visibility="hidden"></rect></g></svg></g></svg>